<svg width="22" height="22" viewBox="0 0 22 22" fill="none" xmlns="http://www.w3.org/2000/svg">
<path d="M6.76923 9.30769C6.76923 7.67708 7.34876 6.28225 8.50781 5.1232C9.66687 3.96414 11.0617 3.38462 12.6923 3.38462C14.3229 3.38462 15.7177 3.96414 16.8768 5.1232C18.0359 6.28225 18.6154 7.67708 18.6154 9.30769C18.6154 10.9383 18.0359 12.3331 16.8768 13.4922C15.7177 14.6512 14.3229 15.2308 12.6923 15.2308C11.0617 15.2308 9.66687 14.6512 8.50781 13.4922C7.34876 12.3331 6.76923 10.9383 6.76923 9.30769ZM-1.90735e-06 20.3077C-1.90735e-06 20.766 0.167469 21.1627 0.502405 21.4976C0.837341 21.8325 1.23398 22 1.69231 22C2.16827 22 2.56491 21.8325 2.88221 21.4976L7.41707 16.976C8.99479 18.0689 10.7532 18.6154 12.6923 18.6154C13.9527 18.6154 15.1581 18.3708 16.3083 17.8816C17.4585 17.3924 18.4501 16.7314 19.2831 15.8984C20.116 15.0655 20.777 14.0739 21.2662 12.9237C21.7554 11.7734 22 10.5681 22 9.30769C22 8.04728 21.7554 6.84195 21.2662 5.69171C20.777 4.54147 20.116 3.54988 19.2831 2.71695C18.4501 1.88401 17.4585 1.22296 16.3083 0.733774C15.1581 0.244591 13.9527 0 12.6923 0C11.4319 0 10.2266 0.244591 9.07632 0.733774C7.92608 1.22296 6.93449 1.88401 6.10156 2.71695C5.26863 3.54988 4.60757 4.54147 4.11839 5.69171C3.62921 6.84195 3.38461 8.04728 3.38461 9.30769C3.38461 11.2468 3.93109 13.0052 5.02404 14.5829L0.489183 19.1178C0.163061 19.4439 -1.90735e-06 19.8405 -1.90735e-06 20.3077Z" fill="white"/>
</svg>
